<mxfile host="app.diagrams.net" modified="2023-08-30T16:39:29.868Z" agent="Mozilla/5.0 (Windows NT 10.0; Win64; x64) AppleWebKit/537.36 (KHTML, like Gecko) Chrome/116.0.0.0 Safari/537.36" etag="h4-Sfset9XNA7fGjEz4W" version="21.7.1" type="github">
  <diagram id="6a731a19-8d31-9384-78a2-239565b7b9f0" name="Page-1">
    <mxGraphModel dx="1793" dy="988" grid="1" gridSize="10" guides="1" tooltips="1" connect="1" arrows="1" fold="1" page="1" pageScale="1" pageWidth="1169" pageHeight="827" background="none" math="0" shadow="0">
      <root>
        <mxCell id="0" />
        <mxCell id="1" parent="0" />
        <mxCell id="GJSgAUa4LGjdRBMWRb_2-2281" value="VLAN 20&lt;br&gt;192.168.20.0/24" style="whiteSpace=wrap;html=1;verticalAlign=top;fillColor=#036897;strokeColor=#ffffff;sketch=0;dashed=0;strokeWidth=2;fillOpacity=25;" vertex="1" parent="1">
          <mxGeometry x="180" y="280" width="290" height="210" as="geometry" />
        </mxCell>
        <mxCell id="RPKfIZD_4BIzQ5OP_o9O-2261" style="edgeStyle=orthogonalEdgeStyle;rounded=0;orthogonalLoop=1;jettySize=auto;html=1;exitX=0.98;exitY=0.5;exitDx=0;exitDy=0;exitPerimeter=0;entryX=0;entryY=0.5;entryDx=0;entryDy=0;entryPerimeter=0;startArrow=classic;startFill=1;" parent="1" source="2109" target="RPKfIZD_4BIzQ5OP_o9O-2259" edge="1">
          <mxGeometry relative="1" as="geometry" />
        </mxCell>
        <mxCell id="2109" value="Internet" style="shape=mxgraph.cisco.storage.cloud;html=1;dashed=0;strokeColor=#23445D;fillColor=#ffffff;strokeWidth=2;fontFamily=Helvetica;fontSize=24;fontColor=#23445D;align=center;fontStyle=1" parent="1" vertex="1">
          <mxGeometry x="40" y="61" width="186" height="106" as="geometry" />
        </mxCell>
        <mxCell id="RPKfIZD_4BIzQ5OP_o9O-2259" value="ISP Modem" style="shape=mxgraph.cisco.modems_and_phones.cable_modem;sketch=0;html=1;pointerEvents=1;dashed=0;fillColor=#036897;strokeColor=#ffffff;strokeWidth=2;verticalLabelPosition=bottom;verticalAlign=top;align=center;outlineConnect=0;" parent="1" vertex="1">
          <mxGeometry x="290" y="96.5" width="74" height="35" as="geometry" />
        </mxCell>
        <mxCell id="RPKfIZD_4BIzQ5OP_o9O-2264" value="" style="edgeStyle=orthogonalEdgeStyle;rounded=0;orthogonalLoop=1;jettySize=auto;html=1;startArrow=classic;startFill=1;" parent="1" target="RPKfIZD_4BIzQ5OP_o9O-2259" edge="1">
          <mxGeometry relative="1" as="geometry">
            <mxPoint x="439.7000000000003" y="114" as="sourcePoint" />
          </mxGeometry>
        </mxCell>
        <mxCell id="GJSgAUa4LGjdRBMWRb_2-2264" value="GeoConex&amp;nbsp;&lt;br&gt;Workstations (3)" style="shape=mxgraph.cisco.computers_and_peripherals.pc;sketch=0;html=1;pointerEvents=1;dashed=0;fillColor=#036897;strokeColor=#ffffff;strokeWidth=2;verticalLabelPosition=bottom;verticalAlign=top;align=center;outlineConnect=0;" vertex="1" parent="1">
          <mxGeometry x="370" y="330" width="78" height="70" as="geometry" />
        </mxCell>
        <mxCell id="GJSgAUa4LGjdRBMWRb_2-2265" value="GeoConex &lt;br&gt;Server (1)" style="shape=mxgraph.cisco.servers.file_server;sketch=0;html=1;pointerEvents=1;dashed=0;fillColor=#036897;strokeColor=#ffffff;strokeWidth=2;verticalLabelPosition=bottom;verticalAlign=top;align=center;outlineConnect=0;" vertex="1" parent="1">
          <mxGeometry x="200" y="330" width="43" height="58" as="geometry" />
        </mxCell>
        <mxCell id="GJSgAUa4LGjdRBMWRb_2-2282" value="" style="edgeStyle=orthogonalEdgeStyle;rounded=0;orthogonalLoop=1;jettySize=auto;html=1;" edge="1" parent="1" source="GJSgAUa4LGjdRBMWRb_2-2273" target="GJSgAUa4LGjdRBMWRb_2-2281">
          <mxGeometry relative="1" as="geometry" />
        </mxCell>
        <mxCell id="GJSgAUa4LGjdRBMWRb_2-2273" value="Meraki MX68 Security Appliance" style="shape=mxgraph.cisco.security.router_firewall;sketch=0;html=1;pointerEvents=1;dashed=0;fillColor=#036897;strokeColor=#ffffff;strokeWidth=2;verticalLabelPosition=bottom;verticalAlign=top;align=center;outlineConnect=0;" vertex="1" parent="1">
          <mxGeometry x="440" y="83" width="78" height="62" as="geometry" />
        </mxCell>
        <mxCell id="GJSgAUa4LGjdRBMWRb_2-2284" style="edgeStyle=orthogonalEdgeStyle;rounded=0;orthogonalLoop=1;jettySize=auto;html=1;exitX=0.5;exitY=0;exitDx=0;exitDy=0;entryX=0.5;entryY=1;entryDx=0;entryDy=0;entryPerimeter=0;" edge="1" parent="1" source="GJSgAUa4LGjdRBMWRb_2-2283" target="GJSgAUa4LGjdRBMWRb_2-2273">
          <mxGeometry relative="1" as="geometry" />
        </mxCell>
        <mxCell id="GJSgAUa4LGjdRBMWRb_2-2283" value="VLAN 0&lt;br&gt;192.168.1.0/24" style="whiteSpace=wrap;html=1;verticalAlign=top;fillColor=#036897;strokeColor=#ffffff;sketch=0;dashed=0;strokeWidth=2;fillOpacity=25;" vertex="1" parent="1">
          <mxGeometry x="530" y="280" width="400" height="320" as="geometry" />
        </mxCell>
        <mxCell id="GJSgAUa4LGjdRBMWRb_2-2287" style="edgeStyle=orthogonalEdgeStyle;rounded=0;orthogonalLoop=1;jettySize=auto;html=1;exitX=0.5;exitY=1;exitDx=0;exitDy=0;exitPerimeter=0;entryX=0.5;entryY=0;entryDx=0;entryDy=0;entryPerimeter=0;" edge="1" parent="1" source="GJSgAUa4LGjdRBMWRb_2-2285" target="GJSgAUa4LGjdRBMWRb_2-2286">
          <mxGeometry relative="1" as="geometry" />
        </mxCell>
        <mxCell id="GJSgAUa4LGjdRBMWRb_2-2285" value="NCIC &lt;br&gt;Workstations (2)" style="shape=mxgraph.cisco.computers_and_peripherals.pc;sketch=0;html=1;pointerEvents=1;dashed=0;fillColor=#036897;strokeColor=#ffffff;strokeWidth=2;verticalLabelPosition=bottom;verticalAlign=top;align=center;outlineConnect=0;" vertex="1" parent="1">
          <mxGeometry x="540" y="330" width="78" height="70" as="geometry" />
        </mxCell>
        <mxCell id="GJSgAUa4LGjdRBMWRb_2-2286" value="NCIC Secure &lt;br&gt;Web App" style="sketch=0;points=[[0.015,0.015,0],[0.985,0.015,0],[0.985,0.985,0],[0.015,0.985,0],[0.25,0,0],[0.5,0,0],[0.75,0,0],[1,0.25,0],[1,0.5,0],[1,0.75,0],[0.75,1,0],[0.5,1,0],[0.25,1,0],[0,0.75,0],[0,0.5,0],[0,0.25,0]];verticalLabelPosition=bottom;html=1;verticalAlign=top;aspect=fixed;align=center;pointerEvents=1;shape=mxgraph.cisco19.rect;prIcon=web_security;fillColor=#FAFAFA;strokeColor=#005073;" vertex="1" parent="1">
          <mxGeometry x="547" y="471" width="64" height="50" as="geometry" />
        </mxCell>
        <mxCell id="GJSgAUa4LGjdRBMWRb_2-2288" value="Other&lt;br&gt;Workstations (3)" style="shape=mxgraph.cisco.computers_and_peripherals.pc;sketch=0;html=1;pointerEvents=1;dashed=0;fillColor=#036897;strokeColor=#ffffff;strokeWidth=2;verticalLabelPosition=bottom;verticalAlign=top;align=center;outlineConnect=0;" vertex="1" parent="1">
          <mxGeometry x="700" y="330" width="78" height="70" as="geometry" />
        </mxCell>
      </root>
    </mxGraphModel>
  </diagram>
</mxfile>
